<?xml version="1.0" encoding="UTF-8"?><svg xmlns="http://www.w3.org/2000/svg" width="709" height="709" style="font-family: Arial, sans-serif; width: 709px; height: 884px;"><g class="path" style="cursor: move;"><path stroke="black" stroke-width="1.5" fill="none" d="M354.50,245.20L354.50,196.80"></path><path stroke="black" stroke-width="1.5" fill="white" class="arrowfront" d="M-1,0L15,5L15,-5Z" transform="translate(354.50000096826506,196.8) rotate(89.99998422921024)"></path><path stroke="black" stroke-width="1.5" fill="white" class="arrowback" d="M-1,0L15,5L15,-5Z" transform="translate(354.5000142904719,245.20000000000127) rotate(269.9999842292102)"></path></g><g class="path" style="cursor: move;"><path stroke="#d01c8b" stroke-width="1.5" fill="none" d="M266.16,302.86L331.79,273.44"></path><path stroke="#d01c8b" stroke-width="1.5" fill="white" class="arrowfront" d="M-1,0L15,5L15,-5Z" transform="translate(331.7933823192547,273.4417875850288) rotate(155.8551328649626)"></path></g><g class="path" style="cursor: move;"><path stroke="#d01c8b" stroke-width="1.5" fill="none" d="M230.14,302.86L164.51,273.44"></path><path stroke="#d01c8b" stroke-width="1.5" fill="white" class="arrowfront" d="M-1,0L15,5L15,-5Z" transform="translate(164.50656192438643,273.44177402425265) rotate(24.14479509999749)"></path></g><g class="path" style="cursor: move;"><path stroke="#d01c8b" stroke-width="1.5" fill="none" d="M236.69,297.11L156.67,192.75"></path><path stroke="#d01c8b" stroke-width="1.5" fill="white" class="arrowfront" d="M-1,0L15,5L15,-5Z" transform="translate(156.67201441552226,192.75069440278614) rotate(52.520472231558585)"></path></g><g class="path" style="cursor: move;"><path stroke="#d01c8b" stroke-width="1.5" fill="none" d="M259.61,144.89L339.63,249.25"></path><path stroke="#d01c8b" stroke-width="1.5" fill="white" class="arrowfront" d="M-1,0L15,5L15,-5Z" transform="translate(339.6279714702524,249.24931380882492) rotate(232.52047381481646)"></path></g><g class="path" style="cursor: move;"><path stroke="black" stroke-width="1.5" fill="none" d="M336.49,170.26L270.86,140.84"></path><path stroke="black" stroke-width="1.5" fill="white" class="arrowfront" d="M-1,0L15,5L15,-5Z" transform="translate(270.85656192438637,140.84177402425266) rotate(24.144795099997484)"></path></g><g class="path" style="cursor: move;"><path stroke="#4dac26" stroke-width="1.5" fill="none" d="M161.80,265.20L329.50,265.20"></path><path stroke="#4dac26" stroke-width="1.5" fill="white" class="arrowfront" d="M-1,0L15,5L15,-5Z" transform="translate(329.5000000000011,265.19998366474414) rotate(179.99999441895517)"></path></g><g class="path" style="cursor: move;"><path stroke="#4dac26" stroke-width="1.5" fill="none" d="M153.26,252.91L233.28,148.55"></path><path stroke="#4dac26" stroke-width="1.5" fill="white" class="arrowfront" d="M-1,0L15,5L15,-5Z" transform="translate(233.27801589974433,148.55062676124783) rotate(127.47951258824273)"></path></g><g class="path" style="cursor: move;"><path stroke="#4dac26" stroke-width="1.5" fill="none" d="M141.80,250.20L141.80,196.80"></path><path stroke="#4dac26" stroke-width="1.5" fill="white" class="arrowfront" d="M-1,0L15,5L15,-5Z" transform="translate(141.80000096826504,196.8) rotate(89.99998953913305)"></path></g><g class="path" style="cursor: move;"><path stroke="#d01c8b" stroke-width="1.5" fill="none" d="M159.81,183.34L331.79,256.96"></path><path stroke="#d01c8b" stroke-width="1.5" fill="white" class="arrowfront" d="M-1,0L15,5L15,-5Z" transform="translate(331.793442525136,256.9582180278854) rotate(203.17430744285372)"></path></g><g class="path" style="cursor: move;"><path stroke="#d01c8b" stroke-width="1.5" fill="none" d="M159.81,170.26L225.44,140.84"></path><path stroke="#d01c8b" stroke-width="1.5" fill="white" class="arrowfront" d="M-1,0L15,5L15,-5Z" transform="translate(225.44338231925468,140.8417875850288) rotate(155.85513286496254)"></path></g><g style="cursor: move; touch-action: none;" transform="translate(354.5,265.2)"><path fill-opacity="0.7" stroke-width="2" z-index="1" d="M 0 0 m 20, 0 a 20,15 0 1,1 -40,0 a 20,15 0 1,1 40,0" fill="#00a2e0" stroke="#000000"></path><rect class="textbg" fill="#ffffff" width="86.86666870117188" height="19" x="-43.43333435058594" y="20"></rect><text class="nodelabel" y="35" text-anchor="middle">Birth Weight</text><path d="M-2,-6L2,-6L2,6L-2,6Z" fill="#000000"></path></g><g style="cursor: move; touch-action: none;" transform="translate(248.14999999999998,309.4)"><path fill-opacity="0.7" stroke-width="2" z-index="1" d="M 0 0 m 20, 0 a 20,15 0 1,1 -40,0 a 20,15 0 1,1 40,0" fill="#ff7777" stroke="#ff7777"></path><rect class="textbg" fill="#ffffff" width="95.18333435058594" height="19" x="-47.59166717529297" y="20"></rect><text class="nodelabel" y="35" text-anchor="middle">Maternal Age</text></g><g style="cursor: move; touch-action: none;" transform="translate(248.14999999999998,132.6)"><path fill-opacity="0.7" stroke-width="2" z-index="1" d="M 0 0 m 20, 0 a 20,15 0 1,1 -40,0 a 20,15 0 1,1 40,0" fill="#00a2e0" stroke="#00a2e0"></path><rect class="textbg" fill="#ffffff" width="95.16666412353516" height="19" x="-47.58333206176758" y="20"></rect><text class="nodelabel" y="35" text-anchor="middle">Maternal BMI</text></g><g style="cursor: move; touch-action: none;" transform="translate(354.5,176.8)"><path fill-opacity="0.7" stroke-width="2" z-index="1" d="M 0 0 m 20, 0 a 20,15 0 1,1 -40,0 a 20,15 0 1,1 40,0" fill="#00a2e0" stroke="#00a2e0"></path><rect class="textbg" fill="#ffffff" width="112.96666717529297" height="19" x="-56.483333587646484" y="20"></rect><text class="nodelabel" y="35" text-anchor="middle">Maternal Height</text></g><g style="cursor: move; touch-action: none;" transform="translate(141.8,265.2)"><path fill-opacity="0.7" stroke-width="2" z-index="1" d="M 0 0 m 20, 0 a 20,15 0 1,1 -40,0 a 20,15 0 1,1 40,0" fill="#bed403" stroke="#000000"></path><rect class="textbg" fill="#ffffff" width="128.96665954589844" height="19" x="-64.48332977294922" y="20"></rect><text class="nodelabel" y="35" text-anchor="middle">Maternal Smoking</text><path d="M-4,-6L7,0L-4,6Z" fill="#000000"></path></g><g style="cursor: move; touch-action: none;" transform="translate(141.8,176.8)"><path fill-opacity="0.7" stroke-width="2" z-index="1" d="M 0 0 m 20, 0 a 20,15 0 1,1 -40,0 a 20,15 0 1,1 40,0" fill="#00a2e0" stroke="#00a2e0"></path><rect class="textbg" fill="#ffffff" width="116.23332977294922" height="19" x="-58.11666488647461" y="20"></rect><text class="nodelabel" y="35" text-anchor="middle">Maternal Weight</text></g></svg>