<?xml version="1.0" encoding="UTF-8"?><svg xmlns="http://www.w3.org/2000/svg" width="709" height="709" style="font-family: Arial, sans-serif; width: 709px; height: 884px;"><g class="path" style="cursor: move;"><path stroke="#4dac26" stroke-width="1.5" fill="none" d="M262.59,187.18L336.00,251.90"></path><path stroke="#4dac26" stroke-width="1.5" fill="white" class="arrowfront" d="M-1,0L15,5L15,-5Z" transform="translate(336.0032164515841,251.90051523268755) rotate(221.39780785643512)"></path></g><g class="path" style="cursor: move;"><path stroke="#d01c8b" stroke-width="1.5" fill="none" d="M266.16,302.86L331.79,273.44"></path><path stroke="#d01c8b" stroke-width="1.5" fill="white" class="arrowfront" d="M-1,0L15,5L15,-5Z" transform="translate(331.7933823192547,273.4417875850288) rotate(155.8551328649626)"></path></g><g class="path" style="cursor: move;"><path stroke="#d01c8b" stroke-width="1.5" fill="none" d="M230.14,302.86L164.51,273.44"></path><path stroke="#d01c8b" stroke-width="1.5" fill="white" class="arrowfront" d="M-1,0L15,5L15,-5Z" transform="translate(164.50656192438643,273.44177402425265) rotate(24.14479509999749)"></path></g><g class="path" style="cursor: move;"><path stroke="#4dac26" stroke-width="1.5" fill="none" d="M161.80,265.20L329.50,265.20"></path><path stroke="#4dac26" stroke-width="1.5" fill="white" class="arrowfront" d="M-1,0L15,5L15,-5Z" transform="translate(329.5000000000011,265.19998366474414) rotate(179.99999441895517)"></path></g><g class="path" style="cursor: move;"><path stroke="#4dac26" stroke-width="1.5" fill="none" d="M156.24,254.82L229.65,190.10"></path><path stroke="#4dac26" stroke-width="1.5" fill="white" class="arrowfront" d="M-1,0L15,5L15,-5Z" transform="translate(229.65326059840973,190.0994098573217) rotate(138.60213374063972)"></path></g><g style="cursor: move; touch-action: none;" transform="translate(354.5,265.2)"><path fill-opacity="0.7" stroke-width="2" z-index="1" d="M 0 0 m 20, 0 a 20,15 0 1,1 -40,0 a 20,15 0 1,1 40,0" fill="#00a2e0" stroke="#000000"></path><rect class="textbg" fill="#ffffff" width="86.86666870117188" height="19" x="-43.43333435058594" y="20"></rect><text class="nodelabel" y="35" text-anchor="middle">Birth Weight</text><path d="M-2,-6L2,-6L2,6L-2,6Z" fill="#000000"></path></g><g style="cursor: move; touch-action: none;" transform="translate(248.14999999999998,176.8)"><path fill-opacity="0.7" stroke-width="2" z-index="1" d="M 0 0 m 20, 0 a 20,15 0 1,1 -40,0 a 20,15 0 1,1 40,0" fill="#00a2e0" stroke="#00a2e0"></path><rect class="textbg" fill="#ffffff" width="113.86666870117188" height="19" x="-56.93333435058594" y="20"></rect><text class="nodelabel" y="35" text-anchor="middle">Gestational Age</text></g><g style="cursor: move; touch-action: none;" transform="translate(248.14999999999998,309.4)"><path fill-opacity="0.7" stroke-width="2" z-index="1" d="M 0 0 m 20, 0 a 20,15 0 1,1 -40,0 a 20,15 0 1,1 40,0" fill="#ff7777" stroke="#ff7777"></path><rect class="textbg" fill="#ffffff" width="95.18333435058594" height="19" x="-47.59166717529297" y="20"></rect><text class="nodelabel" y="35" text-anchor="middle">Maternal Age</text></g><g style="cursor: move; touch-action: none;" transform="translate(141.8,265.2)"><path fill-opacity="0.7" stroke-width="2" z-index="1" d="M 0 0 m 20, 0 a 20,15 0 1,1 -40,0 a 20,15 0 1,1 40,0" fill="#bed403" stroke="#000000"></path><rect class="textbg" fill="#ffffff" width="128.96665954589844" height="19" x="-64.48332977294922" y="20"></rect><text class="nodelabel" y="35" text-anchor="middle">Maternal Smoking</text><path d="M-4,-6L7,0L-4,6Z" fill="#000000"></path></g></svg>