<?xml version="1.0" encoding="UTF-8"?><svg xmlns="http://www.w3.org/2000/svg" width="709" height="896" style="font-family: Arial, sans-serif"><g class="path" style="cursor: move;"><path stroke="#d01c8b" stroke-width="1.5" fill="none" d="M354.50,149.40L354.50,248.80"></path><path stroke="#d01c8b" stroke-width="1.5" fill="white" class="arrowfront" d="M-1,0L15,5L15,-5Z" transform="translate(354.5000142904719,248.8000000000013) rotate(269.999992181332)"></path></g><g class="path" style="cursor: move;"><path stroke="#d01c8b" stroke-width="1.5" fill="none" d="M266.11,306.99L331.85,277.13"></path><path stroke="#d01c8b" stroke-width="1.5" fill="white" class="arrowfront" d="M-1,0L15,5L15,-5Z" transform="translate(331.846870177706,277.13274038617385) rotate(155.57008964126527)"></path></g><g class="path" style="cursor: move;"><path stroke="#d01c8b" stroke-width="1.5" fill="none" d="M230.19,306.99L164.45,277.13"></path><path stroke="#d01c8b" stroke-width="1.5" fill="white" class="arrowfront" d="M-1,0L15,5L15,-5Z" transform="translate(164.4531415712035,277.13276858461643) rotate(24.42982741575233)"></path></g><g class="path" style="cursor: move;"><path stroke="#d01c8b" stroke-width="1.5" fill="none" d="M236.79,301.25L156.55,195.23"></path><path stroke="#d01c8b" stroke-width="1.5" fill="white" class="arrowfront" d="M-1,0L15,5L15,-5Z" transform="translate(156.54517592204562,195.22675286655095) rotate(52.8800387892422)"></path></g><g class="path" style="cursor: move;"><path stroke="#d01c8b" stroke-width="1.5" fill="none" d="M226.21,145.46L337.12,254.58"></path><path stroke="#d01c8b" stroke-width="1.5" fill="white" class="arrowfront" d="M-1,0L15,5L15,-5Z" transform="translate(337.11690019706384,254.57556711857714) rotate(224.5349630753711)"></path></g><g class="path" style="cursor: move;"><path stroke="#d01c8b" stroke-width="1.5" fill="none" d="M232.70,134.40L329.50,134.40"></path><path stroke="#d01c8b" stroke-width="1.5" fill="white" class="arrowfront" d="M-1,0L15,5L15,-5Z" transform="translate(329.5000000000011,134.39998366474416) rotate(179.99999033118576)"></path></g><g class="path" style="cursor: move;"><path stroke="black" stroke-width="1.5" fill="none" d="M368.55,77.88Q426.82,130.82 365.45,250.90"></path><path stroke="black" stroke-width="1.5" fill="white" class="arrowfront" d="M-1,0L15,5L15,-5Z" transform="translate(365.4523637101935,250.89841895474353) rotate(-62.931635750472196)"></path></g><g class="path" style="cursor: move;"><path stroke="black" stroke-width="1.5" fill="none" d="M336.98,74.44L234.84,125.25"></path><path stroke="black" stroke-width="1.5" fill="white" class="arrowfront" d="M-1,0L15,5L15,-5Z" transform="translate(234.84114535048118,125.25028876322531) rotate(-26.448598409763786)"></path></g><g class="path" style="cursor: move;"><path stroke="#4dac26" stroke-width="1.5" fill="none" d="M161.80,268.80L329.50,268.80"></path><path stroke="#4dac26" stroke-width="1.5" fill="white" class="arrowfront" d="M-1,0L15,5L15,-5Z" transform="translate(329.5000000000011,268.79998366474416) rotate(179.99999441895517)"></path></g><g class="path" style="cursor: move;"><path stroke="#4dac26" stroke-width="1.5" fill="none" d="M157.94,259.94L333.98,145.66"></path><path stroke="#4dac26" stroke-width="1.5" fill="white" class="arrowfront" d="M-1,0L15,5L15,-5Z" transform="translate(333.975620172216,145.6644762680017) rotate(147.00946471105595)"></path></g><g class="path" style="cursor: move;"><path stroke="#4dac26" stroke-width="1.5" fill="none" d="M150.19,255.18L201.69,152.28"></path><path stroke="#4dac26" stroke-width="1.5" fill="white" class="arrowfront" d="M-1,0L15,5L15,-5Z" transform="translate(201.6907569399546,152.27860512761404) rotate(116.58866825956002)"></path></g><g class="path" style="cursor: move;"><path stroke="#4dac26" stroke-width="1.5" fill="none" d="M141.80,253.80L141.80,199.20"></path><path stroke="#4dac26" stroke-width="1.5" fill="white" class="arrowfront" d="M-1,0L15,5L15,-5Z" transform="translate(141.80000096826504,199.20000000000002) rotate(89.99998976904222)"></path></g><g class="path" style="cursor: move;"><path stroke="#d01c8b" stroke-width="1.5" fill="none" d="M159.76,185.81L331.85,260.47"></path><path stroke="#d01c8b" stroke-width="1.5" fill="white" class="arrowfront" d="M-1,0L15,5L15,-5Z" transform="translate(331.8468628870319,260.46722346700386) rotate(203.45387386599955)"></path></g><g class="path" style="cursor: move;"><path stroke="#d01c8b" stroke-width="1.5" fill="none" d="M157.94,170.34L192.18,145.66"></path><path stroke="#d01c8b" stroke-width="1.5" fill="white" class="arrowfront" d="M-1,0L15,5L15,-5Z" transform="translate(192.17562017221601,145.6644762680017) rotate(144.2152982567428)"></path></g><g style="cursor: move; touch-action: none;" transform="translate(354.5,268.8)"><path fill-opacity="0.7" stroke-width="2" z-index="1" d="M 0 0 m 20, 0 a 20,15 0 1,1 -40,0 a 20,15 0 1,1 40,0" fill="#00a2e0" stroke="#000000"></path><rect class="textbg" fill="#ffffff" width="86.86666870117188" height="19" x="-43.43333435058594" y="20"></rect><text class="nodelabel" y="35" text-anchor="middle">Birth Weight</text><path d="M-2,-6L2,-6L2,6L-2,6Z" fill="#000000"></path></g><g style="cursor: move; touch-action: none;" transform="translate(354.5,134.4)"><path fill-opacity="0.7" stroke-width="2" z-index="1" d="M 0 0 m 20, 0 a 20,15 0 1,1 -40,0 a 20,15 0 1,1 40,0" fill="#00a2e0" stroke="#00a2e0"></path><rect class="textbg" fill="#ffffff" width="113.86666870117188" height="19" x="-56.93333435058594" y="20"></rect><text class="nodelabel" y="35" text-anchor="middle">Gestational Age</text></g><g style="cursor: move; touch-action: none;" transform="translate(248.14999999999998,313.59999999999997)"><path fill-opacity="0.7" stroke-width="2" z-index="1" d="M 0 0 m 20, 0 a 20,15 0 1,1 -40,0 a 20,15 0 1,1 40,0" fill="#ff7777" stroke="#ff7777"></path><rect class="textbg" fill="#ffffff" width="95.18333435058594" height="19" x="-47.59166717529297" y="20"></rect><text class="nodelabel" y="35" text-anchor="middle">Maternal Age</text></g><g style="cursor: move; touch-action: none;" transform="translate(212.7,134.4)"><path fill-opacity="0.7" stroke-width="2" z-index="1" d="M 0 0 m 20, 0 a 20,15 0 1,1 -40,0 a 20,15 0 1,1 40,0" fill="#00a2e0" stroke="#00a2e0"></path><rect class="textbg" fill="#ffffff" width="95.16666412353516" height="19" x="-47.58333206176758" y="20"></rect><text class="nodelabel" y="35" text-anchor="middle">Maternal BMI</text></g><g style="cursor: move; touch-action: none;" transform="translate(354.5,67.2)"><path fill-opacity="0.7" stroke-width="2" z-index="1" d="M 0 0 m 20, 0 a 20,15 0 1,1 -40,0 a 20,15 0 1,1 40,0" fill="#00a2e0" stroke="#00a2e0"></path><rect class="textbg" fill="#ffffff" width="112.96666717529297" height="19" x="-56.483333587646484" y="20"></rect><text class="nodelabel" y="35" text-anchor="middle">Maternal Height</text></g><g style="cursor: move; touch-action: none;" transform="translate(141.8,268.8)"><path fill-opacity="0.7" stroke-width="2" z-index="1" d="M 0 0 m 20, 0 a 20,15 0 1,1 -40,0 a 20,15 0 1,1 40,0" fill="#bed403" stroke="#000000"></path><rect class="textbg" fill="#ffffff" width="128.96665954589844" height="19" x="-64.48332977294922" y="20"></rect><text class="nodelabel" y="35" text-anchor="middle">Maternal Smoking</text><path d="M-4,-6L7,0L-4,6Z" fill="#000000"></path></g><g style="cursor: move; touch-action: none;" transform="translate(141.8,179.20000000000002)"><path fill-opacity="0.7" stroke-width="2" z-index="1" d="M 0 0 m 20, 0 a 20,15 0 1,1 -40,0 a 20,15 0 1,1 40,0" fill="#00a2e0" stroke="#00a2e0"></path><rect class="textbg" fill="#ffffff" width="116.23332977294922" height="19" x="-58.11666488647461" y="20"></rect><text class="nodelabel" y="35" text-anchor="middle">Maternal Weight</text></g></svg>