<?xml version="1.0" encoding="UTF-8"?><svg xmlns="http://www.w3.org/2000/svg" width="709" height="896" style="font-family: Arial, sans-serif"><g class="path" style="cursor: move;"><path stroke="#d01c8b" stroke-width="1.5" fill="none" d="M354.50,149.40L354.50,248.80"></path><path stroke="#d01c8b" stroke-width="1.5" fill="white" class="arrowfront" d="M-1,0L15,5L15,-5Z" transform="translate(354.5000142904719,248.8000000000013) rotate(269.999992181332)"></path></g><g class="path" style="cursor: move;"><path stroke="#d01c8b" stroke-width="1.5" fill="none" d="M266.11,306.99L331.85,277.13"></path><path stroke="#d01c8b" stroke-width="1.5" fill="white" class="arrowfront" d="M-1,0L15,5L15,-5Z" transform="translate(331.846870177706,277.13274038617385) rotate(155.57008964126527)"></path></g><g class="path" style="cursor: move;"><path stroke="#d01c8b" stroke-width="1.5" fill="none" d="M230.19,306.99L164.45,277.13"></path><path stroke="#d01c8b" stroke-width="1.5" fill="white" class="arrowfront" d="M-1,0L15,5L15,-5Z" transform="translate(164.4531415712035,277.13276858461643) rotate(24.42982741575233)"></path></g><g class="path" style="cursor: move;"><path stroke="#d01c8b" stroke-width="1.5" fill="none" d="M238.93,300.28L153.86,151.83"></path><path stroke="#d01c8b" stroke-width="1.5" fill="white" class="arrowfront" d="M-1,0L15,5L15,-5Z" transform="translate(153.86122398499336,151.82741339245473) rotate(60.18515547354343)"></path></g><g class="path" style="cursor: move;"><path stroke="#d01c8b" stroke-width="1.5" fill="none" d="M256.54,80.82L343.49,250.92"></path><path stroke="#d01c8b" stroke-width="1.5" fill="white" class="arrowfront" d="M-1,0L15,5L15,-5Z" transform="translate(343.4907399881614,250.9213294488904) rotate(242.92442776527338)"></path></g><g class="path" style="cursor: move;"><path stroke="#d01c8b" stroke-width="1.5" fill="none" d="M264.29,76.06L333.98,123.14"></path><path stroke="#d01c8b" stroke-width="1.5" fill="white" class="arrowfront" d="M-1,0L15,5L15,-5Z" transform="translate(333.97567794408553,123.1355916666929) rotate(214.04178786083963)"></path></g><g class="path" style="cursor: move;"><path stroke="black" stroke-width="1.5" fill="none" d="M368.55,77.88Q426.82,130.82 365.45,250.90"></path><path stroke="black" stroke-width="1.5" fill="white" class="arrowfront" d="M-1,0L15,5L15,-5Z" transform="translate(365.4523637101935,250.89841895474353) rotate(-62.931635750472196)"></path></g><g class="path" style="cursor: move;"><path stroke="black" stroke-width="1.5" fill="none" d="M334.50,67.20L273.15,67.20"></path><path stroke="black" stroke-width="1.5" fill="white" class="arrowfront" d="M-1,0L15,5L15,-5Z" transform="translate(273.15,67.2) rotate(-0.000012204612452920105)"></path></g><g class="path" style="cursor: move;"><path stroke="#4dac26" stroke-width="1.5" fill="none" d="M161.80,268.80L329.50,268.80"></path><path stroke="#4dac26" stroke-width="1.5" fill="white" class="arrowfront" d="M-1,0L15,5L15,-5Z" transform="translate(329.5000000000011,268.79998366474416) rotate(179.99999441895517)"></path></g><g class="path" style="cursor: move;"><path stroke="#4dac26" stroke-width="1.5" fill="none" d="M157.94,259.94L333.98,145.66"></path><path stroke="#4dac26" stroke-width="1.5" fill="white" class="arrowfront" d="M-1,0L15,5L15,-5Z" transform="translate(333.975620172216,145.6644762680017) rotate(147.00946471105595)"></path></g><g class="path" style="cursor: move;"><path stroke="#4dac26" stroke-width="1.5" fill="none" d="M150.19,255.18L237.14,85.08"></path><path stroke="#4dac26" stroke-width="1.5" fill="white" class="arrowfront" d="M-1,0L15,5L15,-5Z" transform="translate(237.1407569399546,85.07860512761403) rotate(117.07555896057278)"></path></g><g class="path" style="cursor: move;"><path stroke="#4dac26" stroke-width="1.5" fill="none" d="M141.80,253.80L141.80,154.40"></path><path stroke="#4dac26" stroke-width="1.5" fill="white" class="arrowfront" d="M-1,0L15,5L15,-5Z" transform="translate(141.80000096826504,154.4) rotate(89.99999438017812)"></path></g><g class="path" style="cursor: move;"><path stroke="#d01c8b" stroke-width="1.5" fill="none" d="M157.94,143.26L333.98,257.54"></path><path stroke="#d01c8b" stroke-width="1.5" fill="white" class="arrowfront" d="M-1,0L15,5L15,-5Z" transform="translate(333.97567794408553,257.53559166669294) rotate(212.9905287166069)"></path></g><g class="path" style="cursor: move;"><path stroke="#d01c8b" stroke-width="1.5" fill="none" d="M157.94,125.54L227.63,78.46"></path><path stroke="#d01c8b" stroke-width="1.5" fill="white" class="arrowfront" d="M-1,0L15,5L15,-5Z" transform="translate(227.625620172216,78.46447626800169) rotate(145.95819345380409)"></path></g><g style="cursor: move; touch-action: none;" transform="translate(354.5,268.8)"><path fill-opacity="0.7" stroke-width="2" z-index="1" d="M 0 0 m 20, 0 a 20,15 0 1,1 -40,0 a 20,15 0 1,1 40,0" fill="#00a2e0" stroke="#000000"></path><rect class="textbg" fill="#ffffff" width="86.86666870117188" height="19" x="-43.43333435058594" y="20"></rect><text class="nodelabel" y="35" text-anchor="middle">Birth Weight</text><path d="M-2,-6L2,-6L2,6L-2,6Z" fill="#000000"></path></g><g style="cursor: move; touch-action: none;" transform="translate(354.5,134.4)"><path fill-opacity="0.7" stroke-width="2" z-index="1" d="M 0 0 m 20, 0 a 20,15 0 1,1 -40,0 a 20,15 0 1,1 40,0" fill="#00a2e0" stroke="#00a2e0"></path><rect class="textbg" fill="#ffffff" width="113.86666870117188" height="19" x="-56.93333435058594" y="20"></rect><text class="nodelabel" y="35" text-anchor="middle">Gestational Age</text></g><g style="cursor: move; touch-action: none;" transform="translate(248.14999999999998,313.59999999999997)"><path fill-opacity="0.7" stroke-width="2" z-index="1" d="M 0 0 m 20, 0 a 20,15 0 1,1 -40,0 a 20,15 0 1,1 40,0" fill="#ff7777" stroke="#ff7777"></path><rect class="textbg" fill="#ffffff" width="95.18333435058594" height="19" x="-47.59166717529297" y="20"></rect><text class="nodelabel" y="35" text-anchor="middle">Maternal Age</text></g><g style="cursor: move; touch-action: none;" transform="translate(248.14999999999998,67.2)"><path fill-opacity="0.7" stroke-width="2" z-index="1" d="M 0 0 m 20, 0 a 20,15 0 1,1 -40,0 a 20,15 0 1,1 40,0" fill="#00a2e0" stroke="#00a2e0"></path><rect class="textbg" fill="#ffffff" width="95.16666412353516" height="19" x="-47.58333206176758" y="20"></rect><text class="nodelabel" y="35" text-anchor="middle">Maternal BMI</text></g><g style="cursor: move; touch-action: none;" transform="translate(354.5,67.2)"><path fill-opacity="0.7" stroke-width="2" z-index="1" d="M 0 0 m 20, 0 a 20,15 0 1,1 -40,0 a 20,15 0 1,1 40,0" fill="#00a2e0" stroke="#00a2e0"></path><rect class="textbg" fill="#ffffff" width="112.96666717529297" height="19" x="-56.483333587646484" y="20"></rect><text class="nodelabel" y="35" text-anchor="middle">Maternal Height</text></g><g style="cursor: move; touch-action: none;" transform="translate(141.8,268.8)"><path fill-opacity="0.7" stroke-width="2" z-index="1" d="M 0 0 m 20, 0 a 20,15 0 1,1 -40,0 a 20,15 0 1,1 40,0" fill="#bed403" stroke="#000000"></path><rect class="textbg" fill="#ffffff" width="128.96665954589844" height="19" x="-64.48332977294922" y="20"></rect><text class="nodelabel" y="35" text-anchor="middle">Maternal Smoking</text><path d="M-4,-6L7,0L-4,6Z" fill="#000000"></path></g><g style="cursor: move; touch-action: none;" transform="translate(141.8,134.4)"><path fill-opacity="0.7" stroke-width="2" z-index="1" d="M 0 0 m 20, 0 a 20,15 0 1,1 -40,0 a 20,15 0 1,1 40,0" fill="#00a2e0" stroke="#00a2e0"></path><rect class="textbg" fill="#ffffff" width="116.23332977294922" height="19" x="-58.11666488647461" y="20"></rect><text class="nodelabel" y="35" text-anchor="middle">Maternal Weight</text></g></svg>